<?xml version="1.0" encoding="UTF-8"?> <svg xmlns="http://www.w3.org/2000/svg" xmlns:xlink="http://www.w3.org/1999/xlink" id="Calque_2" width="283.34" height="223.79" viewBox="0 0 283.34 223.79"><defs><style>.cls-1{fill:#edcdab;}.cls-2{fill:#fff;}.cls-3{fill:#fa619a;}.cls-4{fill:#86929c;}.cls-5{fill:#0b384f;}.cls-6{fill:#c99977;}.cls-7,.cls-8{fill:none;}.cls-8{clip-path:url(#clippath);}.cls-9{fill:#e2e5e7;}</style><clipPath id="clippath"><circle class="cls-7" cx="220.1" cy="28.86" r="18.07"></circle></clipPath></defs><g id="Calque_1-2"><g id="OBJECTS"><circle class="cls-3" cx="238.11" cy="71.66" r="45.23"></circle><path class="cls-1" d="m264.95,86.86s-1.71,5.51-6.08,11.78c-4.37,6.27-11.21,10.64-14.07,11.21-2.67.53-4.83,4.22-6.19,7.03-.17,0-.34,0-.51,0-9.41,0-18.15-2.87-25.39-7.79,2.1-2.54,7.77-9.79,10.23-16.54,3.04-8.36,9.88-30.79,14.64-30.03,4.75.76,13.49,7.6,18.24,12.16,4.75,4.56,9.12,12.17,9.12,12.17Z"></path><path class="cls-6" d="m257.67,91.93c-.76-3.38-2.87-6.33-6.3-7.28-3.25-.9-6.76.15-8.85,2.85-2.83,3.66-3.81,9.25-1.46,13.39,5.8,10.22,18.82.86,16.61-8.96Z"></path><path class="cls-1" d="m218.64,101.87s2.79-5.07,2.91-10.77c.13-5.7-1.52-11.02-2.66-13.68-1.14-2.66-1.77-5.32-1.65-8.11.13-2.79-.38-5.7-3.17-9.38s-3.8-6.72-3.55-7.35,1.01-1.65,3.67-1.39c2.66.25,6.97.76,9.76,5.83,2.79,5.07,3.55,8.62,3.67,9,.13.38.63,1.65,1.01,1.9.38.25,7.6,3.17,11.15,11.91,3.55,8.74.43,17.92-3.8,21.41-5.83,4.81-17.36.63-17.36.63Z"></path><path class="cls-6" d="m224.98,98.65s4.47,1.09,8.46-.43c3.99-1.52,4.88-3.25,4.88-3.25,0,0-.02,3.45-4.61,4.97-4.59,1.52-8.73-1.29-8.73-1.29Z"></path><path class="cls-1" d="m239.39,57.02s18.81-20.15,21.95-20.53,5.04,3.04,4.28,6.27c-.76,3.23-15.3,17.2-15.3,17.86s0,.76.86.57c.86-.19,17.1-13.97,18.81-14.54s4.37-.86,5.61,1.81-.1,4.94-3.14,8.17-18.53,12.73-18.81,14.06c-.29,1.33,1.14,3.23.95,3.99-.19.76-7.6,2.28-11.78-1.52-4.18-3.8-9.03-9.31-3.42-16.15Z"></path><path class="cls-5" d="m226.41,42.12c-5.92,2.82-10.47,3.89-10.47,3.89l36.15,67.1s2.6.68,7.17-1.5c4.57-2.18,5.68-4.63,5.68-4.63l-28.92-70.54s-3.69,2.86-9.61,5.68Z"></path><circle class="cls-2" cx="220.1" cy="28.86" r="18.07"></circle><g class="cls-8"><path class="cls-5" d="m207.68,2.79l-13.65,38.48,38.48,13.65,13.65-38.48-38.48-13.65Zm30.53,12.29l-1.74,4.9-4.9-1.74,1.74-4.9,4.9,1.74Zm-18.99,14.2l-1.74,4.9-4.9-1.74,1.74-4.9,4.9,1.74Zm-4.44-3.03l1.74-4.9,4.9,1.74-1.74,4.9-4.9-1.74Zm5.74,3.49l4.9,1.74-1.74,4.9-4.9-1.74,1.74-4.9Zm.46-1.3l1.74-4.9,4.9,1.74-1.74,4.9-4.9-1.74Zm2.2-6.2l1.74-4.9,4.9,1.74-1.74,4.9-4.9-1.74Zm-1.3-.46l-4.9-1.74,1.74-4.9,4.9,1.74-1.74,4.9Zm-6.2-2.2l-4.9-1.74,1.74-4.9,4.9,1.74-1.74,4.9Zm-.46,1.3l-1.74,4.9-4.9-1.74,1.74-4.9,4.9,1.74Zm-2.2,6.2l-1.74,4.9-4.9-1.74,1.74-4.9,4.9,1.74Zm-2.2,6.2l-1.74,4.9-4.9-1.74,1.74-4.9,4.9,1.74Zm1.3.46l4.9,1.74-1.74,4.9-4.9-1.74,1.74-4.9Zm6.2,2.2l4.9,1.74-1.74,4.9-4.9-1.74,1.74-4.9Zm6.2,2.2l4.9,1.74-1.74,4.9-4.9-1.74,1.74-4.9Zm.46-1.3l1.74-4.9,4.9,1.74-1.74,4.9-4.9-1.74Zm2.2-6.2l1.74-4.9,4.9,1.74-1.74,4.9-4.9-1.74Zm2.2-6.2l1.74-4.9,4.9,1.74-1.74,4.9-4.9-1.74Zm2.64-11.56l-1.74,4.9-4.9-1.74,1.74-4.9,4.9,1.74Zm-6.2-2.2l-1.74,4.9-4.9-1.74,1.74-4.9,4.9,1.74Zm-6.2-2.2l-1.74,4.9-4.9-1.74,1.74-4.9,4.9,1.74Zm-11.1-3.94l4.9,1.74-1.74,4.9-4.9-1.74,1.74-4.9Zm-2.2,6.2l4.9,1.74-1.74,4.9-4.9-1.74,1.74-4.9Zm-2.2,6.2l4.9,1.74-1.74,4.9-4.9-1.74,1.74-4.9Zm-2.2,6.2l4.9,1.74-1.74,4.9-4.9-1.74,1.74-4.9Zm-2.2,6.2l4.9,1.74-1.74,4.9-4.9-1.74,1.74-4.9Zm-3.94,11.1l1.74-4.9,4.9,1.74-1.74,4.9-4.9-1.74Zm6.2,2.2l1.74-4.9,4.9,1.74-1.74,4.9-4.9-1.74Zm6.2,2.2l1.74-4.9,4.9,1.74-1.74,4.9-4.9-1.74Zm6.2,2.2l1.74-4.9,4.9,1.74-1.74,4.9-4.9-1.74Zm6.2,2.2l1.74-4.9,4.9,1.74-1.74,4.9-4.9-1.74Zm11.1,3.94l-4.9-1.74,1.74-4.9,4.9,1.74-1.74,4.9Zm2.2-6.2l-4.9-1.74,1.74-4.9,4.9,1.74-1.74,4.9Zm2.2-6.2l-4.9-1.74,1.74-4.9,4.9,1.74-1.74,4.9Zm2.2-6.2l-4.9-1.74,1.74-4.9,4.9,1.74-1.74,4.9Zm2.2-6.2l-4.9-1.74,1.74-4.9,4.9,1.74-1.74,4.9Zm-2.7-7.94l1.74-4.9,4.9,1.74-1.74,4.9-4.9-1.74Z"></path></g><path class="cls-4" d="m226.19,41.65c-8.21,3.91-11.75,4.38-11.75,4.38l3.09,5.56s3.74-.64,11.36-4.27c7.62-3.63,10.48-6.13,10.48-6.13l-2.37-5.9s-2.59,2.45-10.8,6.36Z"></path><path class="cls-9" d="m231.07,40.64l1.38,3.42c2.76-1.5,4.48-2.66,5.35-3.29l-1.36-3.39c-1.06.76-2.78,1.87-5.36,3.27Z"></path><path class="cls-5" d="m235.26,18.14s-4.11.93-16.92,7.04c-12.81,6.1-16.12,8.7-16.12,8.7l2.71,5.69s4.11-.93,16.92-7.04c12.81-6.1,16.12-8.7,16.12-8.7l-2.71-5.69Z"></path><path class="cls-4" d="m225.03,23.53c.5.74.95,1.52,1.34,2.34s.72,1.67.98,2.52c5.07-2.58,7.76-4.2,8.98-5l-1.76-3.69c-1.39.45-4.34,1.51-9.54,3.82Z"></path><path class="cls-4" d="m251.1,80.13l-6.1-14.9h0l-8.18-19.98c-1.1.67-2.49,1.47-4.22,2.37l6.62,16.17,7.54,18.41,4.34-2.07Z"></path><path class="cls-4" d="m252.69,96.62l4.97,12.08c-.37.39-.94.9-1.75,1.45.66-.2,1.4-.48,2.24-.88,2.04-.97,3.22-1.97,3.84-2.64l-4.79-11.65c-1.48.64-2.98,1.19-4.51,1.64Z"></path><path class="cls-1" d="m243.76,79.54s11.69-11.12,13.3-11.78c1.62-.67,4.75,0,5.61,2.28s1.62,3.61-2.47,8.46c-4.09,4.85-9.98,7.6-12.73,7.22-2.76-.38-5.23-2.76-3.71-6.18Z"></path><path class="cls-1" d="m249.75,86.1s4.94-2.19,8.17-5.61,3.99-4.66,4.56-4.75c.57-.1,3.04,1.52,3.71,4.37.66,2.85.29,5.89-2.57,8.27s-10.83,6.46-12.83,6.08-2.76-2.66-3.04-4.37c-.28-1.71,1.2-3.48,2-3.99Z"></path></g><path class="cls-3" d="m44.76,41.58c-2.29,0-4.21,1.92-4.21,4.21v70.94h-16.11V45.79c0-2.29-1.92-4.21-4.21-4.21s-4.12,1.92-4.12,4.21v70.94H0V45.79c0-9.7,6.96-17.94,16.11-19.86,1.28-.27,2.75-.46,4.12-.46,1.46,0,2.84.18,4.21.46,3.02.64,5.68,1.92,8.06,3.75,2.38-1.83,5.13-3.11,8.06-3.75,1.37-.27,2.75-.46,4.21-.46,1.37,0,2.84.18,4.12.46,9.25,1.92,16.11,10.16,16.11,19.86v70.94h-16.11V45.79c0-2.29-1.92-4.21-4.12-4.21Z"></path><path class="cls-3" d="m69.57,25.47h16.11v91.26h-16.11V25.47Z"></path><path class="cls-3" d="m136.48,93.67c0,12.72-10.44,23.07-23.16,23.07-2.38,0-4.76-.37-6.96-1.1-9.34-2.93-16.11-11.72-16.11-21.97v-45.04c0-10.25,6.77-19.04,16.11-22.06,2.2-.64,4.58-1.1,6.96-1.1,12.72,0,23.16,10.44,23.16,23.16v7.32h-16.11v-7.32c0-3.84-3.11-7.05-7.05-7.05s-6.96,3.2-6.96,7.05v45.04c0,3.84,3.11,6.96,6.96,6.96s7.05-3.11,7.05-6.96v-7.32h16.11v7.32Z"></path><path class="cls-3" d="m157.17,116.73h-16.11V25.47h23.07c2.47,0,4.85.46,7.05,1.1,9.34,3.02,16.11,11.81,16.11,22.06v15.1c0,5.77-2.11,10.98-5.58,15.01,3.48,4.03,5.58,9.34,5.58,15.01v22.98h-16.11v-22.98c0-3.75-3.11-6.87-6.87-6.87h-7.14v29.84Zm7.14-45.95c3.75-.09,6.87-3.2,6.87-7.05v-15.1c0-3.84-3.2-7.05-7.05-7.05h-6.96v29.2h7.14Z"></path><path class="cls-5" d="m32.76,201.15h2.19c4.76,0,8.75-3.99,8.75-8.75s-3.99-8.88-8.75-8.88h-2.19c-2.96,0-5.92-.39-8.75-1.16-6.05-1.8-11.32-5.4-15.31-10.16-2.7-3.22-4.76-7.08-6.05-11.19-.77-2.83-1.29-5.79-1.29-8.88,0-14.15,9.65-26.24,22.64-30.1,2.83-.77,5.79-1.29,8.75-1.29h2.19c17.24,0,31.39,14.15,31.39,31.39h-22.64c0-4.76-3.99-8.75-8.75-8.75h-2.19c-4.76,0-8.75,3.99-8.75,8.75s3.99,8.88,8.75,8.88h2.19c9.65,0,18.27,4.37,24.06,11.19,2.7,3.34,4.89,7.2,6.05,11.32.9,2.83,1.29,5.79,1.29,8.88,0,17.24-14.15,31.39-31.39,31.39h-2.19c-2.96,0-5.92-.51-8.75-1.29-12.99-3.86-22.64-15.95-22.64-30.1h22.64c0,4.76,3.99,8.75,8.75,8.75Z"></path><path class="cls-5" d="m72.77,191.24v-1.93c0-14.41,9.52-26.76,22.64-30.87,3.09-1.03,6.43-1.54,9.78-1.54s6.82.51,9.91,1.54v-5.15c0-5.4-4.5-9.91-9.91-9.91-4.76,0-9.01,3.73-9.65,8.36h-22.77c.13-2.83.64-5.66,1.54-8.36,3.22-9.91,11.06-17.88,21.1-21.1,3.09-.9,6.43-1.54,9.78-1.54s6.82.64,9.91,1.54c9.91,3.22,17.88,11.19,21.1,21.1,1.03,3.09,1.54,6.43,1.54,9.91v37.95c0,14.54-9.52,26.76-22.64,31-3.09,1.03-6.43,1.54-9.91,1.54s-6.69-.51-9.78-1.54c-13.12-4.25-22.64-16.47-22.64-31Zm42.32,0v-1.93c0-5.4-4.5-9.78-9.91-9.78s-9.78,4.37-9.78,9.78v1.93c0,5.53,4.37,9.91,9.78,9.91s9.91-4.37,9.91-9.91Z"></path><path class="cls-5" d="m166.81,120.74v66.25l9.78,12.61,9.91-12.61v-66.25h22.64v73.97l-22.64,29.07h-19.68l-22.64-29.07v-73.97h22.64Z"></path><path class="cls-5" d="m254.35,198.9c-1.69,1.41-3.86,2.25-6.22,2.25-5.4,0-9.91-4.37-9.91-9.91v-12.73h42.32v-25.21c0-17.88-14.54-32.55-32.42-32.55-3.47,0-6.82.64-9.91,1.54-12.99,4.25-22.64,16.59-22.64,31v37.95c0,14.54,9.65,26.76,22.64,31,3.09,1.03,6.43,1.54,9.91,1.54,14.93,0,27.52-10.23,31.27-24.01-8.36.03-16.71-.16-25.05-.87Zm-16.13-45.61c0-5.4,4.5-9.91,9.91-9.91s9.78,4.5,9.78,9.91v2.57h-19.68v-2.57Z"></path><circle class="cls-5" cx="77.49" cy="10.67" r="10.67"></circle><circle class="cls-3" cx="105.15" cy="191.56" r="15.56"></circle><circle class="cls-3" cx="250.15" cy="150.22" r="15.56"></circle><path class="cls-3" d="m261.82,197.76h-3.11v-13.15c0-1.98,1.31-3.67,3.11-4.26.42-.12.88-.21,1.34-.21h4.26v3.11h-4.26c-.74,0-1.34.62-1.34,1.36v2.79h4.68v3.11h-4.68v7.24Z"></path><path class="cls-3" d="m271.41,197.76h-3.11v-17.62h4.45c.48,0,.94.09,1.36.21,1.8.58,3.11,2.28,3.11,4.26v2.92c0,1.11-.41,2.12-1.08,2.9.67.78,1.08,1.8,1.08,2.9v4.44h-3.11v-4.44c0-.72-.6-1.33-1.33-1.33h-1.38v5.76Zm1.38-8.87c.72-.02,1.33-.62,1.33-1.36v-2.92c0-.74-.62-1.36-1.36-1.36h-1.34v5.64h1.38Z"></path></g></svg> 